<?xml version="1.0" encoding="utf-8"?>
<!-- Generator: Adobe Illustrator 16.0.0, SVG Export Plug-In . SVG Version: 6.00 Build 0)  -->
<!DOCTYPE svg PUBLIC "-//W3C//DTD SVG 1.1//EN" "http://www.w3.org/Graphics/SVG/1.1/DTD/svg11.dtd">
<svg version="1.1" id="Layer_1" xmlns="http://www.w3.org/2000/svg" xmlns:xlink="http://www.w3.org/1999/xlink" x="0px" y="0px"
	 width="127.75px" height="104px" viewBox="0 0 127.75 104" enable-background="new 0 0 127.75 104" xml:space="preserve">
<path fill="#58B54C" d="M67.896,65.653l-0.675-1.549l-0.138-0.227c-0.19-1.404,0.182-3.174,1.079-5.126
	c0.067-0.146,6.523-14.634-8.277-22.01l-1.053-0.645l0.021,0.917c0,0,0.028,1.253,0.138,3.007l0.025,0.411
	c0.019,0.326,0.039,0.67,0.08,1.062c0.021,0.129,0.026,0.254,0.032,0.382c0.006,0.121,0.012,0.243,0.034,0.453
	c0.021,0.213,0.044,0.437,0.028,0.72c0.001,0.638-0.033,0.998-0.249,1.582c-0.182,0.522-0.415,1.076-0.662,1.665l-0.235,0.569
	c-0.556,1.365-1.186,2.913-1.412,4.732c-0.3,2.279,0.213,4.528,1.417,6.183l0.502,0.65c0.225,0.3,0.413,0.512,0.571,0.646
	l1.08,1.041c0.246,0.248,0.502,0.489,0.76,0.73c0.421,0.394,0.856,0.802,1.215,1.225l1.279,1.62l1.043,1.791l0.541,1.297
	c0.657,1.738,1.018,3.599,1.043,5.394c0.012,0.254,0.013,0.521,0.014,0.788c0.001,0.229,0.002,0.46,0.009,0.686
	c0.008,0.257-0.014,0.513-0.035,0.769c-0.015,0.18-0.029,0.359-0.032,0.499c-0.102,0.841-0.277,1.702-0.521,2.553
	c-0.289,0.955-0.622,1.908-0.952,2.855c-0.273,0.784-0.545,1.564-0.788,2.326c-0.188,0.541-0.329,1.064-0.465,1.574
	c-0.083,0.31-0.164,0.614-0.263,0.942c-0.142,0.59-0.247,1.161-0.35,1.719c-0.047,0.255-0.093,0.506-0.15,0.811l-0.068,0.785
	c-0.047,0.512-0.092,1.011-0.118,1.521l0.001,0.411c0.001,0.571,0.003,1.119,0.021,1.659c0.098,1.309,0.249,2.429,0.449,3.326
	l0.038,0.176c0.182,0.849,0.338,1.582,0.775,2.034c0.402,0.511,0.859,0.71,0.911,0.73l0.366,0.151l0.23-0.322
	c0.03-0.042,0.299-0.429,0.441-1.013c0.087-0.363,0.112-0.709,0.077-1.058c-0.017-0.159-0.043-0.328-0.072-0.506
	c-0.031-0.198-0.065-0.41-0.089-0.652l-0.178-1.397c-0.033-0.432-0.086-0.89-0.142-1.374l-0.159-2.174
	c-0.006-0.41,0.004-0.832,0.014-1.268c0.006-0.269,0.013-0.543,0.009-0.747c0.033-0.2,0.062-0.405,0.094-0.613
	c0.074-0.516,0.152-1.048,0.278-1.543c0.187-0.667,0.441-1.536,0.766-2.361c0.287-0.83,0.658-1.67,1.05-2.559
	c0.352-0.797,0.716-1.62,1.057-2.526c0.053-0.163,0.109-0.325,0.166-0.487c0.112-0.322,0.225-0.646,0.318-1.004l0.081-0.349
	c0.097-0.402,0.195-0.818,0.238-1.27c0.014-0.17,0.031-0.341,0.05-0.512c0.039-0.376,0.078-0.754,0.075-1.129l0.005-0.401
	c0.006-0.371,0.011-0.741-0.013-1.119C69.165,69.928,68.721,67.763,67.896,65.653z M63.787,58.956
	c-0.438-0.585-0.899-1.169-1.402-1.775c-1.474-1.777-0.808-4.099-0.037-6.786c0.509-1.774,1.034-3.601,0.964-5.432
	c1.178,0.494,3.505,1.953,3.688,5.811C67.204,55.06,64.673,58.187,63.787,58.956z M60.739,46.649
	c-0.001,0.606-0.038,1.159-0.109,1.655c-0.127,0.89-0.374,1.809-0.635,2.783c-0.257,0.959-0.52,1.937-0.676,2.925
	c-0.167-0.779-0.167-1.529-0.112-2.128c0.131-1.496,0.66-2.915,1.171-4.288l0.148-0.391C60.598,47.019,60.669,46.833,60.739,46.649z
	"/>
<path fill="#C22727" d="M123.206,44.378c-0.013,0.001-0.259,0.021-0.701,0.022l-0.252-0.006c-0.461-0.009-1.092-0.022-1.794-0.18
	c-0.624-0.14-0.843-0.305-0.905-0.376c-0.074-0.092-0.074-0.11-0.073-0.124l0.003-0.084l-0.009-0.05l0.002-0.249
	c0.001-0.063,0.012-0.109,0.021-0.154c0.014-0.065,0.026-0.128,0.028-0.167c0.031-0.19,0.078-0.391,0.128-0.607
	c0.106-0.464,0.239-1.041,0.279-1.732c0.038-0.759-0.102-1.41-0.418-1.972c-0.221-0.436-0.582-0.726-0.954-1.012l-0.124-0.065
	c-0.28-0.149-0.599-0.319-0.889-0.368c-1.096-0.253-2.197-0.165-3.408,0.075c-0.386,0.051-0.761,0.133-1.13,0.215l-0.44,0.096
	c-0.33,0.063-0.671,0.143-1.016,0.224l-0.6,0.138c-2.3,0.557-4.752,1.27-6.85,1.894l-7.651,2.321
	c-1.384,0.401-2.74,0.79-4.111,1.129l-0.233,0.054c-0.486,0.113-0.95,0.221-1.345,0.246c0.108-0.145,0.227-0.301,0.356-0.468
	l0.726-0.915l0.771-1.099c1.059-1.828,1.393-3.607,1.646-5.283c0.238-1.807,0.285-3.634,0.139-5.431
	c-0.18-2.226-0.536-3.951-1.153-5.583c-0.152-0.428-0.359-0.89-0.641-1.432c-0.092-0.198-0.233-0.408-0.373-0.611l-1.325-1.801
	c-0.071-0.099-0.137-0.189-0.288-0.367c-0.09-0.109-0.185-0.222-0.322-0.349c-0.176-0.2-0.529-0.448-0.889-0.615
	c-0.432-0.169-1.031-0.219-1.289-0.157c-0.588,0.094-0.906,0.278-1.139,0.412l-0.135,0.077c-0.212,0.124-0.376,0.242-0.54,0.361
	l-1.281,0.985c-0.71,0.551-1.443,1.121-2.108,1.495c-0.208,0.114-0.419,0.185-0.551,0.209c-0.013-0.015-0.024-0.031-0.038-0.046
	c-0.277-0.38-0.539-1.198-0.771-1.919l-0.082-0.255c-0.594-1.873-1.265-3.851-2.354-5.642c-0.53-0.893-1.172-1.767-1.914-2.604
	c-0.453-0.489-0.873-0.913-1.289-1.333c-0.264-0.267-0.527-0.532-0.803-0.819c-0.378-0.38-0.75-0.764-1.123-1.15
	c-0.992-1.027-2.02-2.09-3.238-3.118l-0.091-0.072c-0.421-0.329-0.898-0.701-1.675-1.007c-0.663-0.242-1.323-0.249-1.931-0.011
	c-0.748,0.308-1.125,0.855-1.354,1.256c-0.369,0.713-0.483,1.312-0.599,1.917c-0.079,0.449-0.127,0.876-0.174,1.287l-0.033,0.29
	c-0.04,0.312-0.085,0.632-0.135,0.96l-0.13,0.148l0.12-0.09c-0.215,1.382-0.53,2.922-0.972,4.759
	c-0.42,1.783-0.979,3.658-1.708,5.725c-0.697,1.913-1.405,3.763-2.408,5.364c-0.6,0.935-1.165,1.564-1.679,1.872
	c-0.23,0.14-0.357,0.144-0.343,0.152l-0.484-0.194c-0.003-0.001-0.007-0.003-0.01-0.005c-0.155-0.075-0.357-0.185-0.535-0.291
	c-0.542-0.327-1.089-0.716-1.668-1.127c-0.247-0.175-0.497-0.353-0.769-0.542c-0.157-0.099-0.311-0.201-0.466-0.304
	c-0.733-0.485-1.564-1.035-2.821-1.351c-0.458-0.11-0.947-0.133-1.5-0.025c-0.553,0.117-1.112,0.428-1.549,0.868
	c-0.708,0.774-0.909,1.534-1.077,2.167c-0.266,1.224-0.296,2.378-0.289,3.447c0.024,2.094,0.152,4.167,0.281,6.242l0.066,1.1
	c0.101,1.637,0.205,3.33,0.206,4.959c-0.029,2.127-0.104,4.013-0.724,5.531c-0.425,0.969-1.002,0.952-1.199,0.967
	c-0.559-0.028-1.184-0.086-1.812-0.145c-0.38-0.035-0.762-0.07-1.119-0.099c-1.648-0.169-3.823-0.38-6.036-0.512
	c-1.3-0.072-2.575-0.136-3.876-0.136c-0.792,0-1.515,0.024-2.209,0.073c-0.841,0.057-1.955,0.154-3.136,0.406l-0.182,0.044
	c-0.994,0.243-2.121,0.519-3.18,1.577c-0.635,0.638-0.974,1.693-0.821,2.588l0.128,0.579c0.043,0.123,0.093,0.24,0.144,0.357
	l0.39,0.826c0.172,0.325,0.291,0.609,0.407,0.886l0.255,0.716l0.028,0.183c0.014,0.084,0.032,0.166,0.03,0.233
	c0,0.023,0,0.045-0.001,0.063c-0.106,0.041-0.346,0.101-0.691,0.113l-0.208,0.003c-0.514,0-1.094-0.049-1.656-0.096
	c-0.263-0.021-0.523-0.043-0.752-0.059c-0.595-0.068-1.31-0.307-2-0.537l-2.996-1.076c-0.839-0.295-1.639-0.644-2.485-1.012
	c-0.843-0.367-1.714-0.747-2.639-1.072c-0.452-0.146-0.938-0.299-1.505-0.398c-0.532-0.084-1.265-0.148-1.883-0.021
	c-0.21,0.031-0.449,0.104-0.653,0.196c-0.294,0.101-0.583,0.308-0.743,0.439c-0.284,0.197-0.492,0.514-0.686,0.832
	c-0.154,0.308-0.231,0.623-0.29,0.922c-0.02,0.228-0.027,0.461-0.017,0.739c0.023,0.182,0.055,0.356,0.085,0.519
	c0.025,0.159,0.063,0.278,0.104,0.397l0.157,0.463c0.041,0.1,0.066,0.159,0.093,0.206H5.351c0.069,0.136,0.133,0.269,0.197,0.4
	c0.125,0.257,0.249,0.513,0.417,0.801l0.808,1.271L7.07,61.25c0.43,0.578,0.874,1.175,1.347,1.712
	c2.055,2.363,4.403,4.606,7.181,6.86c2.923,2.343,5.228,3.955,7.468,5.225c1.412,0.816,2.737,1.412,4.101,1.835l0.862,0.181
	l1.405,0.183c0.581,0.068,1.148,0.134,1.749,0.23c0.541,0.097,1.1,0.197,1.562,0.355c0.175,0.049,0.326,0.116,0.434,0.174
	l0.027,0.024c-0.035,0.091-0.092,0.211-0.184,0.343c-0.208,0.331-0.5,0.699-0.87,1.098c-0.423,0.463-0.882,0.904-1.34,1.344
	c-0.278,0.268-0.556,0.535-0.829,0.81c-0.849,0.867-1.465,1.535-2,2.166c-0.293,0.35-0.604,0.729-0.894,1.153l-0.065,0.099
	c-0.244,0.371-0.52,0.791-0.688,1.442l-0.023,0.139c-0.026,0.179-0.058,0.4,0.002,0.666c0.038,0.367,0.31,0.824,0.6,1.027
	c0.484,0.372,0.882,0.406,1.146,0.429l0.245,0.015c0.443,0,0.796-0.072,1.106-0.136l0.21-0.043c1.544-0.424,2.718-1,3.505-1.386
	c1.75-0.903,2.622-1.51,2.658-1.534l2.034-1.423l-2.426,0.524c0,0-1.036,0.224-2.91,0.695c-0.228,0.054-0.468,0.114-0.721,0.178
	c-0.682,0.172-1.443,0.364-2.254,0.502c0.157-0.189,0.328-0.382,0.503-0.575c0.505-0.553,1.121-1.171,1.942-1.95l0.541-0.521
	c0.559-0.534,1.137-1.086,1.733-1.732c0.337-0.367,0.777-0.871,1.193-1.53l0.261-0.459c0.075-0.14,0.136-0.315,0.194-0.487
	l0.03-0.095c0.109-0.248,0.133-0.559,0.138-0.804c0.047-0.336-0.054-0.683-0.161-0.979c-0.088-0.305-0.263-0.51-0.402-0.674
	l-0.145-0.176c-0.159-0.169-0.318-0.276-0.458-0.371l-0.189-0.128c-0.394-0.22-0.774-0.381-1.11-0.473
	c-0.645-0.207-1.258-0.31-1.852-0.408l-2.672-0.353l-1.154-0.217c-1.208-0.395-2.343-0.938-3.385-1.617
	c-2.206-1.366-4.496-3.126-6.806-5.231c-2.566-2.342-4.677-4.552-6.466-6.772c-0.397-0.457-0.762-0.954-1.114-1.436l-0.874-1.305
	c-0.111-0.188-0.216-0.409-0.321-0.632c0.33,0.004,0.69,0.032,1.051,0.066c1.817,0.187,3.51,0.561,5.032,1.113l2.963,1.059
	c0.753,0.27,1.532,0.549,2.513,0.743c0.271,0.034,0.535,0.071,0.797,0.109c0.668,0.096,1.358,0.195,2.163,0.224
	c0.536-0.004,1.203-0.009,1.965-0.361c0.428-0.196,0.824-0.555,1.106-1.021c0.099-0.198,0.2-0.414,0.278-0.679
	c0.032-0.18,0.061-0.363,0.085-0.567c0.025-0.314-0.002-0.581-0.029-0.839l-0.228-1.091c-0.163-0.494-0.359-1.06-0.576-1.499
	c-0.091-0.198-0.369-0.802-0.347-0.931c0.001-0.003,0.01-0.025,0.056-0.079c0.195-0.209,0.839-0.523,1.835-0.756
	c0.753-0.176,1.605-0.302,2.676-0.395c1.929-0.146,3.853-0.205,5.774-0.178c1.716,0.02,3.602,0.092,5.932,0.228
	c0.375,0.024,0.739,0.054,1.104,0.083c0.632,0.052,1.27,0.104,2.043,0.13c0.76,0,1.547-0.274,2.1-0.729
	c0.505-0.399,0.896-0.924,1.226-1.645c0.523-1.108,0.72-2.231,0.877-3.291c0.158-1.144,0.214-2.246,0.248-3.172
	c0.08-2.11,0.087-4.229,0.083-6.205v-0.301c-0.001-1.911-0.002-3.886,0.09-5.786c0.047-0.97,0.107-1.907,0.312-2.69
	c0.049-0.181,0.11-0.333,0.157-0.436c0.56,0.172,1.476,0.75,2.1,1.145l0.223,0.135c0.822,0.5,1.673,1.017,2.666,1.438
	c0.28,0.119,0.543,0.226,0.861,0.327c0.18,0.063,0.326,0.102,0.425,0.125c0.123,0.039,0.41,0.105,0.638,0.119
	c1.073,0.116,1.933-0.387,2.452-0.808c1.018-0.865,1.59-1.831,2.175-2.817c2.15-3.748,3.441-7.642,4.682-11.638
	c0.717-2.367,1.188-4.23,1.528-6.046l0.051-0.288c0.068-0.389,0.134-0.761,0.216-1.107c0.021-0.089,0.043-0.178,0.067-0.264
	c0.062,0.053,0.126,0.109,0.189,0.168c1.014,0.943,2.051,2.08,3.054,3.179l0.902,0.985c0.258,0.285,0.529,0.578,0.799,0.868
	c0.403,0.435,0.801,0.863,1.136,1.25c0.536,0.623,1.05,1.309,1.572,2.097c0.883,1.332,1.658,2.853,2.469,4.853
	c0.179,0.425,0.362,0.86,0.575,1.315l0.088,0.182c0.2,0.413,0.427,0.881,0.817,1.368c0.286,0.356,0.615,0.64,0.979,0.84
	c0.41,0.229,0.913,0.377,1.424,0.357c0.856-0.021,1.441-0.301,2.017-0.576c0.516-0.273,0.972-0.552,1.412-0.822
	c0.362-0.222,0.714-0.437,1.084-0.638l1.06-0.583c0.188,0.313,0.41,0.675,0.626,0.96l0.2,0.275l0.012-0.006l0.122,0.201
	c0.046,0.084,0.097,0.157,0.148,0.23c0.036,0.052,0.075,0.104,0.118,0.188c0.187,0.343,0.337,0.638,0.466,0.976
	c1.221,3.045,1.823,6.346,1.697,9.269l-0.104,1.132c-0.036,0.231-0.083,0.458-0.129,0.685l-0.077,0.394
	c-0.07,0.268-0.154,0.529-0.238,0.791l-0.445,1.053l-1.638,2.259c-0.389,0.525-0.791,1.069-1.163,1.9
	c-0.075,0.186-0.133,0.424-0.163,0.698c-0.005,0.188,0.016,0.389,0.069,0.619c0.074,0.235,0.24,0.504,0.465,0.73
	c0.174,0.151,0.349,0.242,0.512,0.318c0.129,0.055,0.21,0.073,0.359,0.107c0.175,0.042,0.278,0.049,0.481,0.062l1.308,0.015
	c0.8,0,1.48-0.169,2.082-0.319l0.387-0.094c1.509-0.395,2.947-0.834,4.214-1.222l7.656-2.29c2.062-0.601,4.472-1.287,6.71-1.814
	l0.583-0.131c0.31-0.071,0.614-0.141,0.916-0.198l0.43-0.073c0.349-0.061,0.68-0.119,1.016-0.146
	c0.866-0.099,1.665-0.07,2.308,0.125c0.02,0.012,0.044,0.027,0.072,0.042l0.029,0.034c0.014,0.026,0.051,0.152,0.053,0.399
	c0.014,0.317-0.004,0.665-0.022,1.03c-0.019,0.373-0.037,0.763-0.028,1.177l0.007,0.167c0.009,0.192,0.019,0.387,0.044,0.528
	l0.151,0.653c0.151,0.519,0.537,1.02,1.043,1.347c0.822,0.503,1.571,0.508,2.135,0.502c1.13-0.053,1.912-0.296,2.386-0.443
	c0.512-0.167,0.766-0.277,0.766-0.277l2.829-1.221L123.206,44.378z"/>
<path d="M98.417,58.136c-0.056-0.292-0.125-0.625-0.173-0.766l-0.281-0.812c-0.253-0.594-0.587-1.055-0.92-1.476
	c-0.711-0.848-1.465-1.424-2.05-1.836c-0.449-0.305-0.888-0.57-1.301-0.808c-0.316-0.207-0.656-0.417-1.025-0.622
	c-0.27-0.155-6.643-3.806-11.6-4.479c-0.661-0.089-1.335-0.135-2.003-0.135c-3.141,0-5.844,0.995-6.573,2.42
	c-0.321,0.626-0.255,1.308,0.187,1.92c0.945,1.312,3.316,1.453,6.319,1.631c2.309,0.138,4.926,0.293,7.458,0.982l0.416,0.156
	c0.798,0.3,1.659,0.624,2.556,0.999c0.992,0.418,2.137,0.917,3.17,1.552c0.523,0.32,0.958,0.659,1.238,0.959
	c0.084,0.101,0.259,0.31,0.325,0.46l0.106,0.276c0.039,0.114,0.054,0.182,0.065,0.241c0.012,0.051,0.021,0.098,0.03,0.126
	c0.215,0.937-0.096,1.859-0.921,2.741c-0.849,0.896-2.182,1.751-3.855,2.474c-1.481,0.644-3.227,1.219-5.191,1.71
	c-3.253,0.822-7.089,1.415-12.076,1.864c-1.564,0.156-3.152,0.293-4.76,0.431c-2.794,0.24-5.682,0.487-8.594,0.859
	c-2.73,0.341-4.95,0.743-6.987,1.268c-1.064,0.281-2.325,0.648-3.601,1.24c-0.702,0.33-1.309,0.694-1.86,1.121
	c-0.516,0.41-1.25,1.079-1.678,2.143c-0.203,0.501-0.308,1.046-0.304,1.6l0.07,0.734c0.021,0.142,0.043,0.288,0.104,0.525
	c0.208,0.848,0.571,1.601,1.112,2.304c1.106,1.41,2.593,2.124,3.623,2.542c2.497,0.963,4.946,1.254,7.245,1.471
	c2.452,0.213,4.857,0.26,6.887,0.277c2.399,0.026,4.47,0.171,6.332,0.442c1.044,0.149,2.024,0.352,2.911,0.601
	c1.028,0.298,1.812,0.634,2.337,0.998c0.182,0.125,0.304,0.254,0.365,0.341c-0.08,0.154-0.649,0.583-1.521,0.897
	c-1.474,0.55-3.146,0.864-4.764,1.169l-1.919,0.367c-0.37,0.065-0.795,0.117-1.2,0.155l-2.644,0.207
	c-0.893,0.081-1.816,0.166-2.822,0.458c-0.542,0.169-1.123,0.396-1.701,0.928c-0.323,0.309-0.578,0.71-0.719,1.139
	c-0.07,0.222-0.113,0.439-0.125,0.636c-0.019,0.218-0.014,0.296,0.008,0.552l0.036,0.256c0.006,0.05,0.021,0.135,0.06,0.269
	c0.056,0.217,0.132,0.416,0.233,0.607c0.19,0.361,0.458,0.688,0.747,0.914c0.548,0.444,1.107,0.624,1.642,0.756
	c0.777,0.17,1.474,0.192,2.053,0.192l0.466-0.003c0.585-0.014,1.146-0.043,1.68-0.071c0.785-0.041,1.519-0.082,2.184-0.058
	c0.423,0.015,0.817,0.053,1.146,0.109c-0.195,0.134-0.383,0.238-0.498,0.299c-0.572,0.296-1.155,0.466-1.613,0.599
	c-0.995,0.267-1.596,0.395-1.603,0.396l-1.292,0.278l1.155,0.648c0,0,0.155,0.088,0.483,0.213c0.29,0.105,0.75,0.253,1.385,0.323
	c0.229,0.027,0.48,0.047,0.755,0.047c0.543,0,1.088-0.077,1.634-0.235c0.573-0.184,1.023-0.406,1.461-0.721
	c0.209-0.149,0.482-0.363,0.761-0.699c0.195-0.251,0.602-0.772,0.545-1.625c-0.065-0.646-0.443-1.216-1.069-1.607
	c-0.419-0.256-0.808-0.384-1.102-0.467c-0.6-0.166-1.2-0.261-2.014-0.318c-0.812-0.051-1.637-0.033-2.47-0.018
	c-0.412,0.009-0.827,0.018-1.244,0.018l-0.296-0.002c-0.6-0.009-1.283-0.036-1.804-0.173c-0.118-0.032-0.212-0.067-0.283-0.102
	c0.072-0.027,0.16-0.058,0.263-0.083c0.603-0.157,1.412-0.22,2.195-0.264c0.298-0.016,0.602-0.028,0.911-0.041
	c0.569-0.023,1.157-0.047,1.764-0.094c0.484-0.036,0.964-0.081,1.503-0.166l2.142-0.365c1.644-0.274,3.344-0.56,5.162-1.188
	c0.655-0.237,1.167-0.472,1.668-0.768c0.562-0.345,1.203-0.807,1.686-1.598c0.113-0.17,0.32-0.615,0.328-0.698l0.12-0.446
	c0.021-0.103,0.042-0.204,0.049-0.289c0.067-0.514-0.007-1.082-0.211-1.604c-0.391-0.974-1.051-1.555-1.589-1.957
	c-0.23-0.166-0.461-0.314-0.691-0.449V82.83l-0.023,0.09c-0.913-0.529-1.826-0.839-2.7-1.111c-1.048-0.305-2.152-0.545-3.375-0.734
	c-2.018-0.313-4.245-0.492-6.811-0.547c-1.97-0.038-4.296-0.106-6.606-0.329c-1.967-0.197-4.236-0.502-6.155-1.275
	c-0.931-0.379-1.62-0.844-1.999-1.354c-0.165-0.211-0.313-0.521-0.375-0.775c-0.09-0.423-0.087-0.432-0.032-0.592
	c0.058-0.179,0.63-0.704,1.571-1.118c0.791-0.364,1.749-0.693,2.929-1.003c2.109-0.546,4.288-0.901,6.515-1.246
	c4.43-0.644,8.943-1.109,13.188-1.532c4.146-0.43,8.532-0.927,12.579-1.852c2.215-0.499,4.12-1.077,5.825-1.768
	c2.293-0.937,3.903-1.938,5.229-3.251c0.836-0.853,1.47-1.841,1.837-2.865C98.526,60.448,98.62,59.264,98.417,58.136z"/>
</svg>
