<?xml version="1.0" encoding="utf-8"?>
<!-- Generator: Adobe Illustrator 16.0.0, SVG Export Plug-In . SVG Version: 6.00 Build 0)  -->
<!DOCTYPE svg PUBLIC "-//W3C//DTD SVG 1.1//EN" "http://www.w3.org/Graphics/SVG/1.1/DTD/svg11.dtd">
<svg version="1.1" id="Layer_1" xmlns="http://www.w3.org/2000/svg" xmlns:xlink="http://www.w3.org/1999/xlink" x="0px" y="0px"
	 width="127.75px" height="104px" viewBox="0 0 127.75 104" enable-background="new 0 0 127.75 104" xml:space="preserve">
<path fill="#FFFFFF" d="M67.437,65.851l-0.643-1.487l-0.19-0.313c-0.25-1.608,0.208-3.558,1.105-5.508
	c1.208-2.625,4.957-14.874-8.084-21.375l-0.271-0.166c0,0,0.028,1.245,0.137,2.984c0.03,0.437,0.047,0.913,0.1,1.427
	c0.042,0.26,0.031,0.508,0.061,0.776c0.025,0.264,0.058,0.54,0.039,0.858c0.001,0.685-0.038,1.101-0.277,1.747
	c-0.215,0.616-0.499,1.277-0.795,1.985c-0.574,1.416-1.257,3.004-1.49,4.882c-0.243,1.845,0.044,4.062,1.317,5.812l0.506,0.656
	c0.171,0.229,0.345,0.437,0.518,0.586c0.36,0.348,0.724,0.697,1.089,1.049c0.658,0.666,1.4,1.273,2.012,1.997l0.881,1.119
	l0.439,0.562l0.354,0.617l0.718,1.23l0.547,1.313c0.667,1.764,1.049,3.68,1.075,5.549c0.02,0.474,0.008,0.99,0.022,1.479
	c0.014,0.45-0.054,0.896-0.071,1.342c-0.106,0.884-0.288,1.765-0.538,2.639c-0.529,1.747-1.201,3.487-1.746,5.201
	c-0.301,0.863-0.475,1.681-0.714,2.469c-0.205,0.852-0.332,1.666-0.487,2.454c-0.064,0.785-0.147,1.543-0.185,2.262
	c0.003,0.716,0,1.397,0.021,2.035c0.095,1.27,0.241,2.369,0.439,3.258c0.192,0.89,0.32,1.592,0.717,2.006
	c0.333,0.423,0.709,0.578,0.709,0.578s0.238-0.333,0.361-0.839c0.061-0.252,0.101-0.549,0.066-0.888
	c-0.035-0.337-0.119-0.715-0.16-1.148c-0.054-0.43-0.114-0.905-0.18-1.423c-0.039-0.52-0.109-1.077-0.177-1.675
	c-0.039-0.598-0.081-1.233-0.125-1.903c-0.01-0.667,0.021-1.365,0.029-2.101c0.116-0.708,0.196-1.473,0.384-2.212
	c0.221-0.788,0.47-1.615,0.775-2.39c0.555-1.6,1.403-3.22,2.103-5.074c0.154-0.479,0.34-0.946,0.472-1.448
	c0.114-0.508,0.258-1.016,0.309-1.546c0.041-0.531,0.127-1.065,0.124-1.605c0.001-0.501,0.024-0.98-0.009-1.505
	C68.667,69.989,68.224,67.866,67.437,65.851z M67.5,50.75c0.246,5.175-3.327,8.764-3.848,8.865C63.195,58.989,62.658,58.293,62,57.5
	c-2.833-3.417,1.396-8.521,0.75-13.25C62.75,44.25,67.236,45.205,67.5,50.75z M58.709,51.84c0.141-1.605,0.718-3.12,1.242-4.529
	c0.269-0.705,0.541-1.395,0.762-2.097c0.188-0.506,0.271-1.152,0.3-1.676c0.221,1.657,0.32,3.382,0.112,4.837
	c-0.352,2.461-1.593,5.159-1.433,7.795C58.819,54.883,58.575,53.32,58.709,51.84z"/>
<path fill="#FFFFFF" d="M122.488,44.9c-0.495-0.016-1.252,0.001-2.139-0.198c-0.428-0.096-0.929-0.257-1.184-0.549
	c-0.118-0.146-0.19-0.274-0.184-0.455l-0.007-0.034l0.001-0.026v-0.062l0.002-0.251c0.001-0.17,0.042-0.263,0.055-0.396
	c0.1-0.606,0.346-1.321,0.402-2.283c0.023-0.467-0.009-1.087-0.366-1.721c-0.166-0.329-0.452-0.564-0.739-0.794
	c-0.283-0.148-0.614-0.342-0.894-0.39c-1.174-0.271-2.207-0.117-3.23,0.083c-0.531,0.07-1.041,0.204-1.541,0.306
	c-0.511,0.099-1.051,0.237-1.592,0.357c-2.143,0.519-4.408,1.168-6.822,1.886c-2.403,0.729-4.961,1.505-7.657,2.323
	c-1.348,0.391-2.734,0.789-4.14,1.136c-0.713,0.163-1.399,0.342-1.972,0.315c-0.221-0.005-0.443-0.01-0.666-0.015
	c0.251-0.397,0.593-0.854,0.913-1.267l0.727-0.916l0.092-0.115l0.087-0.117l0.042-0.062l0.169-0.247l0.339-0.497
	c0.973-1.681,1.316-3.337,1.581-5.098c0.231-1.744,0.284-3.525,0.138-5.325c-0.146-1.802-0.434-3.623-1.127-5.457
	c-0.162-0.457-0.382-0.922-0.624-1.389c-0.107-0.232-0.294-0.479-0.449-0.711l-0.122-0.176l-0.09-0.12l-0.204-0.267l-0.761-1.023
	c-0.074-0.102-0.134-0.188-0.243-0.315c-0.097-0.116-0.182-0.226-0.36-0.395c-0.115-0.13-0.401-0.342-0.696-0.48
	c-0.346-0.136-0.766-0.188-1.028-0.129c-0.598,0.095-0.838,0.285-1.1,0.426c-0.26,0.153-0.442,0.296-0.652,0.444l-1.115,0.866
	c-0.724,0.562-1.479,1.146-2.175,1.538c-0.32,0.175-0.685,0.289-0.854,0.28c-0.161-0.002-0.185-0.021-0.378-0.261
	c-0.36-0.493-0.643-1.442-0.926-2.319c-0.573-1.808-1.228-3.762-2.308-5.537c-0.529-0.891-1.156-1.735-1.851-2.52
	c-0.739-0.797-1.389-1.421-2.079-2.139c-1.39-1.394-2.678-2.845-4.329-4.239c-0.439-0.341-0.876-0.699-1.615-0.991
	c-0.366-0.133-0.951-0.262-1.569-0.018c-0.61,0.251-0.914,0.698-1.099,1.024c-0.351,0.677-0.447,1.228-0.552,1.773
	c-0.095,0.548-0.145,1.063-0.203,1.554c-0.242,1.908-0.657,3.886-1.125,5.829c-0.46,1.953-1.055,3.881-1.725,5.781
	c-0.687,1.887-1.41,3.792-2.457,5.464c-0.523,0.814-1.154,1.618-1.841,2.029c-0.338,0.205-0.626,0.254-0.788,0.189
	c-0.001,0.016-0.388-0.137-0.524-0.212c-0.166-0.08-0.382-0.198-0.577-0.313c-0.794-0.479-1.592-1.082-2.446-1.674
	c-0.895-0.565-1.714-1.234-3.135-1.591c-0.354-0.084-0.808-0.113-1.281-0.022c-0.493,0.104-0.954,0.385-1.283,0.716
	c-0.618,0.676-0.799,1.34-0.957,1.936c-0.257,1.182-0.285,2.288-0.278,3.335c0.024,2.106,0.153,4.168,0.28,6.219
	c0.12,2.048,0.272,4.083,0.273,6.095c-0.027,1.984-0.086,4.061-0.766,5.725c-0.366,0.836-0.932,1.294-1.682,1.266
	c-0.901-0.045-1.973-0.167-2.956-0.245c-2.005-0.206-4.008-0.391-6.012-0.51c-2.003-0.11-4.008-0.205-6.025-0.063
	c-1.009,0.068-2.021,0.173-3.05,0.392c-1.018,0.252-2.107,0.469-3.127,1.488c-0.508,0.511-0.811,1.402-0.687,2.131l0.111,0.517
	c0.054,0.153,0.119,0.294,0.18,0.44l0.096,0.215l0.068,0.139l0.16,0.322c0.237,0.447,0.378,0.821,0.541,1.199l0.174,0.571
	c0.022,0.167,0.066,0.356,0.063,0.491c-0.005,0.317-0.027,0.329-0.192,0.459c-0.191,0.117-0.579,0.194-0.986,0.209
	c-0.825,0.023-1.803-0.095-2.688-0.155c-0.777-0.09-1.681-0.426-2.533-0.703c-0.862-0.313-1.719-0.626-2.571-0.936
	c-1.724-0.605-3.331-1.452-5.113-2.08c-0.453-0.147-0.912-0.289-1.418-0.378c-0.501-0.079-1.042-0.164-1.741-0.023
	c-0.163,0.024-0.359,0.084-0.565,0.175c-0.188,0.064-0.413,0.209-0.62,0.378c-0.207,0.143-0.38,0.411-0.524,0.646
	c-0.119,0.237-0.188,0.495-0.239,0.74c-0.018,0.209-0.024,0.423-0.019,0.632c0.022,0.173,0.052,0.338,0.083,0.506
	c0.028,0.18,0.081,0.293,0.124,0.438l0.07,0.205l0.035,0.103c0.088,0.214,0.045,0.101,0.074,0.168
	c0.201,0.391,0.357,0.758,0.592,1.163l0.786,1.239c0.537,0.716,1.054,1.438,1.622,2.082c2.262,2.603,4.675,4.818,7.116,6.798
	c2.452,1.964,4.879,3.75,7.406,5.182c1.252,0.724,2.556,1.343,3.952,1.778c0.372,0.078,0.741,0.156,1.108,0.233
	c0.327,0.036,0.651,0.072,0.974,0.108c0.637,0.073,1.259,0.144,1.861,0.24c0.588,0.105,1.181,0.208,1.67,0.376
	c0.499,0.141,0.904,0.423,0.865,0.486c0.026,0.022-0.016,0.399-0.3,0.804c-0.249,0.394-0.576,0.793-0.924,1.168
	c-0.685,0.75-1.461,1.442-2.18,2.166c-0.706,0.721-1.37,1.424-1.975,2.138c-0.302,0.36-0.592,0.716-0.858,1.104
	c-0.26,0.399-0.526,0.769-0.688,1.395c-0.025,0.192-0.066,0.354-0.007,0.627c0.023,0.221,0.219,0.55,0.407,0.682
	c0.43,0.331,0.736,0.308,1.001,0.339c0.513,0.011,0.886-0.086,1.268-0.161c1.446-0.396,2.524-0.913,3.408-1.347
	C34.64,85.852,35.5,85.25,35.5,85.25s-1.03,0.222-2.9,0.693c-0.931,0.221-2.089,0.556-3.384,0.746
	c-0.248,0.03-0.51,0.055-0.734,0.049c0.088-0.167,0.219-0.375,0.368-0.57c0.227-0.308,0.503-0.624,0.793-0.943
	c0.584-0.64,1.249-1.296,1.963-1.972c0.696-0.677,1.47-1.383,2.255-2.233c0.388-0.422,0.773-0.879,1.127-1.44l0.254-0.446
	c0.083-0.155,0.143-0.364,0.207-0.548c0.075-0.17,0.093-0.427,0.101-0.671c0.032-0.233-0.053-0.51-0.146-0.771
	c-0.08-0.273-0.274-0.438-0.432-0.646c-0.169-0.179-0.346-0.273-0.526-0.405c-0.346-0.192-0.695-0.344-1.02-0.434
	c-0.666-0.213-1.298-0.31-1.944-0.418c-0.634-0.084-1.278-0.169-1.932-0.256c-0.321-0.038-0.645-0.077-0.971-0.115
	c-0.275-0.062-0.553-0.125-0.833-0.188c-1.14-0.373-2.345-0.919-3.493-1.668c-2.322-1.438-4.634-3.24-6.88-5.288
	c-2.243-2.046-4.489-4.309-6.506-6.813c-0.531-0.61-0.984-1.263-1.46-1.902l-0.582-0.914c-0.194-0.331-0.375-0.755-0.564-1.13
	c-0.016-0.042-0.041-0.13-0.065-0.22c0.177-0.028,0.407-0.051,0.653-0.034c0.368-0.001,0.776,0.03,1.188,0.069
	c1.669,0.171,3.455,0.524,5.15,1.14c0.856,0.306,1.719,0.614,2.586,0.924c0.885,0.312,1.723,0.64,2.783,0.852
	c0.962,0.121,1.838,0.291,2.894,0.329c0.525-0.004,1.103-0.012,1.76-0.315c0.329-0.152,0.655-0.442,0.867-0.789
	c0.087-0.175,0.178-0.364,0.234-0.545c0.031-0.17,0.058-0.344,0.079-0.518c0.027-0.335-0.018-0.622-0.046-0.924l-0.187-0.81
	c-0.17-0.517-0.355-1.04-0.556-1.446c-0.476-1.038-0.488-1.231-0.201-1.561c0.354-0.378,1.238-0.703,2.086-0.901
	c0.873-0.204,1.807-0.324,2.752-0.406c1.896-0.143,3.85-0.208,5.817-0.179c1.97,0.022,3.958,0.112,5.958,0.229
	c1.021,0.066,1.955,0.171,3.07,0.212c0.624,0.011,1.323-0.199,1.836-0.621c0.522-0.412,0.847-0.948,1.084-1.465
	c0.492-1.042,0.679-2.102,0.834-3.146c0.144-1.047,0.205-2.087,0.243-3.123c0.078-2.071,0.087-4.133,0.083-6.186
	c-0.001-2.052-0.007-4.101,0.091-6.111c0.049-1.007,0.113-1.972,0.329-2.798c0.107-0.391,0.281-0.732,0.372-0.816
	c0.044-0.024,0.033-0.021,0.048-0.027c0.032,0.008,0.104-0.013,0.25,0.029c0.593,0.144,1.494,0.7,2.329,1.227
	c0.871,0.528,1.776,1.096,2.824,1.54c0.267,0.113,0.517,0.215,0.832,0.316c0.16,0.056,0.29,0.091,0.409,0.119
	c0.089,0.028,0.336,0.086,0.541,0.099c0.868,0.091,1.594-0.302,2.076-0.692c0.971-0.825,1.518-1.763,2.065-2.685
	c2.121-3.698,3.42-7.616,4.637-11.535c0.596-1.97,1.128-3.926,1.515-5.989c0.09-0.503,0.167-0.985,0.271-1.419
	c0.083-0.363,0.199-0.719,0.313-0.946c0.198,0.115,0.498,0.34,0.772,0.596c1.331,1.238,2.661,2.761,3.986,4.195
	c0.648,0.716,1.38,1.477,1.943,2.126c0.586,0.681,1.116,1.401,1.61,2.147c0.991,1.496,1.776,3.119,2.488,4.875
	c0.184,0.438,0.372,0.888,0.587,1.349c0.226,0.458,0.437,0.947,0.847,1.458c0.202,0.252,0.472,0.517,0.832,0.716
	c0.355,0.197,0.796,0.311,1.169,0.294c0.771-0.019,1.292-0.278,1.795-0.518c0.938-0.497,1.676-1.014,2.49-1.456l1.18-0.648
	c0.103-0.05,0.208-0.103,0.309-0.152l0.071,0.12c0.209,0.342,0.489,0.831,0.77,1.202l0.198,0.271l0.049,0.067
	c0.015,0.02,0.066,0.09,0.059,0.084l0.063,0.103c0.08,0.147,0.181,0.249,0.266,0.419c0.175,0.322,0.348,0.653,0.491,1.029
	c1.188,2.964,1.867,6.365,1.732,9.5c-0.036,0.391-0.072,0.779-0.108,1.166c-0.06,0.381-0.147,0.752-0.217,1.127
	c-0.096,0.363-0.214,0.715-0.326,1.069l-0.424,0.922l-0.331,0.502l-0.165,0.25l-0.042,0.062c-0.007,0.009-0.006,0.009-0.009,0.014
	l-0.085,0.108l-0.736,0.957c-0.482,0.673-0.959,1.227-1.385,2.177c-0.053,0.132-0.104,0.325-0.127,0.525
	c-0.004,0.151,0.013,0.311,0.047,0.457c0.051,0.165,0.18,0.365,0.314,0.502c0.12,0.104,0.246,0.173,0.381,0.236
	c0.125,0.053,0.185,0.056,0.281,0.081c0.199,0.048,0.277,0.034,0.422,0.051c0.386,0.004,0.77,0.008,1.15,0.011
	c0.946,0.018,1.721-0.228,2.442-0.396c1.461-0.382,2.845-0.804,4.196-1.217c2.697-0.807,5.256-1.571,7.66-2.291
	c2.402-0.7,4.66-1.332,6.744-1.823c0.52-0.112,1.012-0.238,1.524-0.334c0.524-0.085,1.008-0.186,1.469-0.223
	c0.934-0.107,1.846-0.059,2.42,0.116c0.169,0.024,0.212,0.107,0.324,0.136c0.038,0.063,0.109,0.087,0.126,0.154
	c0.083,0.099,0.147,0.342,0.148,0.669c0.029,0.646-0.067,1.41-0.051,2.202c0.012,0.216,0.014,0.467,0.044,0.633l0.045,0.247
	l0.034,0.182l0.06,0.173c0.135,0.462,0.486,0.841,0.824,1.06c0.705,0.431,1.332,0.43,1.85,0.429
	c1.042-0.048,1.766-0.267,2.254-0.419c0.484-0.158,0.724-0.261,0.724-0.261S122.989,44.899,122.488,44.9z M7.948,56.794
	c-0.024,0.012-0.044,0.018-0.029,0.017C7.912,56.809,7.923,56.801,7.948,56.794z M68.156,7.685
	C68.184,7.654,68.193,7.657,68.156,7.685L68.156,7.685z M88.461,22.688c-0.011,0.001-0.039,0.003-0.074,0.004
	C88.493,22.658,88.573,22.65,88.461,22.688z"/>
<path fill="#FFFFFF" d="M97.926,58.229c-0.051-0.268-0.114-0.575-0.164-0.728l-0.077-0.28l-0.038-0.109l-0.02-0.051l-0.041-0.103l-0.083-0.203
	c-0.229-0.539-0.535-0.961-0.843-1.351c-0.627-0.747-1.296-1.284-1.948-1.743c-0.438-0.298-0.867-0.558-1.293-0.803
	c-0.308-0.202-0.638-0.405-1.002-0.608c0,0-6.5-3.749-11.417-4.416s-9.417,1.334-7.917,3.417c1.454,2.019,7.681,0.837,13.525,2.43
	c0.009,0.003,0.016,0.006,0.024,0.009c0.916,0.345,1.927,0.717,2.989,1.161c1.059,0.447,2.192,0.945,3.236,1.586
	c0.519,0.318,1.006,0.684,1.362,1.066c0.159,0.191,0.312,0.383,0.386,0.553l0.031,0.062l0.017,0.031l0.008,0.015
	c-0.005-0.021,0.025,0.068-0.01-0.042l0.089,0.277c0.075,0.218,0.077,0.298,0.11,0.416c0.245,1.072-0.079,2.163-1.045,3.197
	c-0.969,1.022-2.413,1.894-4.02,2.587c-1.611,0.702-3.395,1.269-5.268,1.737c-3.756,0.95-7.852,1.49-12.149,1.877
	c-4.297,0.431-8.774,0.706-13.341,1.289c-2.286,0.285-4.592,0.655-6.921,1.255c-1.164,0.307-2.336,0.662-3.516,1.209
	c-0.588,0.276-1.181,0.611-1.762,1.06c-0.571,0.454-1.172,1.059-1.526,1.939c-0.175,0.432-0.271,0.918-0.268,1.386l0.018,0.344
	l0.006,0.086l0.018,0.119l0.018,0.107c0.021,0.137,0.04,0.273,0.101,0.51c0.2,0.818,0.544,1.496,1.02,2.115
	c0.96,1.223,2.224,1.903,3.409,2.384c2.41,0.93,4.785,1.22,7.108,1.439c2.32,0.201,4.622,0.256,6.849,0.276
	c2.191,0.024,4.337,0.147,6.398,0.447c1.028,0.147,2.031,0.349,2.979,0.615c0.934,0.271,1.845,0.624,2.479,1.067
	c0.317,0.216,0.521,0.463,0.57,0.593c0.028,0.068,0.04,0.102,0.034,0.159c0.002,0.014-0.009,0.031-0.008,0.048l-0.001,0.013
	c0,0.002,0.002-0.004,0.003-0.007l-0.018,0.054c-0.062,0.19-0.023,0.038-0.047,0.109c-0.179,0.368-0.98,0.854-1.795,1.149
	c-1.686,0.629-3.578,0.95-5.406,1.298c-0.459,0.088-0.913,0.176-1.364,0.262c-0.384,0.068-0.822,0.121-1.249,0.161
	c-0.893,0.07-1.769,0.139-2.626,0.206c-0.889,0.082-1.775,0.161-2.73,0.439c-0.472,0.146-0.997,0.346-1.505,0.812
	c-0.25,0.239-0.469,0.569-0.587,0.927c-0.057,0.18-0.093,0.357-0.104,0.529c-0.018,0.206-0.009,0.264,0.015,0.553l0.026,0.146
	c0.005,0.036,0.017,0.1,0.048,0.208c0.05,0.195,0.117,0.358,0.192,0.501c0.155,0.295,0.375,0.567,0.619,0.757
	c0.49,0.398,0.989,0.547,1.433,0.657c0.895,0.195,1.666,0.185,2.401,0.178c1.458-0.035,2.759-0.166,3.893-0.129
	c0.55,0.019,1.11,0.077,1.552,0.187c0.224,0.054,0.417,0.129,0.538,0.196c0.01,0.006,0.012,0.008,0.02,0.013
	c-0.008,0.011-0.012,0.02-0.021,0.031c-0.084,0.107-0.212,0.233-0.353,0.35c-0.282,0.236-0.622,0.44-0.877,0.575
	c-0.603,0.311-1.211,0.491-1.714,0.638c-1.016,0.271-1.627,0.401-1.627,0.401s0.135,0.074,0.413,0.181
	c0.277,0.1,0.699,0.233,1.273,0.296c0.573,0.069,1.308,0.082,2.176-0.167c0.474-0.153,0.89-0.34,1.322-0.651
	c0.217-0.156,0.44-0.338,0.659-0.601c0.2-0.257,0.483-0.641,0.442-1.267c-0.065-0.646-0.52-1.036-0.833-1.231
	c-0.336-0.205-0.658-0.322-0.974-0.412c-0.639-0.177-1.245-0.254-1.91-0.301c-1.302-0.081-2.633,0.014-3.988-0.001
	c-0.668-0.01-1.362-0.042-1.927-0.191c-0.274-0.074-0.516-0.182-0.615-0.284c-0.061-0.048-0.077-0.092-0.104-0.14
	c-0.015-0.031-0.018-0.049-0.017-0.045c-0.002,0.016-0.01-0.017-0.018-0.078l-0.021-0.146c0.024,0.093-0.002-0.049,0.014-0.039
	c0.001-0.028,0.01-0.044,0.014-0.056c0.015-0.02,0.021-0.034,0.063-0.074c0.096-0.08,0.346-0.209,0.668-0.288
	c0.644-0.168,1.459-0.233,2.295-0.279c0.843-0.045,1.73-0.063,2.664-0.135c0.471-0.035,0.938-0.078,1.458-0.16
	c0.453-0.077,0.909-0.155,1.369-0.234c1.84-0.318,3.789-0.584,5.848-1.297c0.516-0.187,1.041-0.408,1.575-0.723
	c0.525-0.323,1.097-0.736,1.532-1.449c0.099-0.15,0.262-0.529,0.271-0.585l0.031-0.09l0.039-0.137l0.019-0.081
	c0.021-0.109,0.047-0.216,0.057-0.329c0.059-0.453-0.018-0.942-0.179-1.352c-0.334-0.833-0.898-1.35-1.418-1.739
	c-1.068-0.772-2.165-1.158-3.261-1.5c-1.097-0.319-2.202-0.549-3.313-0.721c-2.223-0.346-4.48-0.493-6.743-0.541
	c-2.228-0.043-4.438-0.119-6.646-0.331c-2.188-0.219-4.411-0.552-6.294-1.31c-0.931-0.379-1.744-0.89-2.204-1.51
	c-0.229-0.293-0.397-0.676-0.471-0.979c-0.119-0.562-0.099-0.616-0.019-0.847c0.132-0.416,0.932-1.022,1.838-1.421
	c0.917-0.423,1.955-0.755,3.013-1.033c2.128-0.551,4.354-0.914,6.569-1.257c4.444-0.645,8.889-1.104,13.208-1.535
	c4.315-0.447,8.551-0.934,12.52-1.841c1.986-0.447,3.913-1,5.746-1.743c1.825-0.746,3.592-1.682,5.062-3.138
	c0.723-0.737,1.35-1.642,1.721-2.677C98.027,60.362,98.11,59.25,97.926,58.229z M76.047,86.634c0.001-0.002,0.001-0.004,0.002-0.007
	c-0.001,0.003,0,0.001-0.001,0.004L76.047,86.634z"/>
</svg>
